<svg width="150" height="68" viewBox="0 0 150 68" fill="none" xmlns="http://www.w3.org/2000/svg">
    <path d="M60.7258 23.486V63.9929C60.7258 64.3953 61.0507 64.7214 61.4516 64.7214H63.6291C64.0299 64.7214 64.3549 64.3953 64.3549 63.9929V21.0745C64.3549 20.408 63.5371 20.0914 63.0912 20.5852L60.9138 22.9967C60.7928 23.1307 60.7258 23.3051 60.7258 23.486Z"
          fill="#12508A"/>
    <path d="M69.6774 64.7214H67.258C66.8571 64.7214 66.5322 64.3953 66.5322 63.9929V30.0924C66.5322 29.9212 66.5925 29.7553 66.7021 29.6242L69.1214 26.7313C69.5571 26.2104 70.4032 26.5195 70.4032 27.1998V63.9929C70.4032 64.3953 70.0783 64.7214 69.6774 64.7214Z"
          fill="#12508A"/>
    <path d="M70.2274 21.8237L67.5661 24.9259C67.127 25.4378 66.2903 25.126 66.2903 24.4504V16.8327C66.2903 16.6673 66.3465 16.5069 66.4493 16.3777L69.1106 13.037C69.5391 12.499 70.4033 12.8032 70.4033 13.492V21.3483C70.4033 21.5228 70.3408 21.6915 70.2274 21.8237Z"
          fill="#12508A"/>
    <path d="M72.3387 9.55429V64.4785C72.3387 64.881 72.6636 65.2071 73.0645 65.2071H75.428C75.8288 65.2071 76.1538 64.881 76.1538 64.4785V33.7311C76.1538 33.5167 76.2479 33.3129 76.4112 33.1745L80.3366 29.8469C80.4999 29.7084 80.594 29.5047 80.594 29.2902V22.9649C80.594 22.3618 79.9059 22.0199 79.4281 22.3856L77.3197 24C76.8421 24.3658 76.1538 24.0239 76.1538 23.4207V17.8158C76.1538 17.606 76.2438 17.4064 76.4008 17.268L81.285 12.9676C81.4422 12.8293 81.5322 12.6297 81.5322 12.4199V2.60092C81.5322 1.97114 80.79 1.63802 80.3226 2.05795L72.5806 9.01133C72.4267 9.14954 72.3387 9.34701 72.3387 9.55429Z"
          fill="#12508A"/>
    <path d="M83.4678 3.6928V64.3572C83.4678 64.7596 83.7927 65.0857 84.1936 65.0857H89.5137C89.8933 65.0857 90.2088 64.7924 90.2376 64.4125L90.8212 56.7113C90.8466 56.3749 90.6385 56.0648 90.3184 55.9621L87.9791 55.2112C87.6784 55.1145 87.4745 54.834 87.4745 54.5171V41.7588C87.4745 41.2372 88.0045 40.8845 88.4831 41.088L90.227 41.8292C90.6883 42.0252 91.2044 41.7042 91.2344 41.2019L91.6326 34.5605C91.6522 34.2341 91.4529 33.9347 91.1449 33.8281L87.9634 32.7265C87.6707 32.6252 87.4745 32.3486 87.4745 32.0377V19.0699C87.4745 18.4285 88.2404 18.1001 88.702 18.5435L91.4601 21.1929C91.9065 21.6217 92.6485 21.3302 92.6862 20.7112L93.1273 13.5009C93.1389 13.3138 93.0779 13.1295 92.9577 12.9863L84.7483 3.22288C84.3119 2.70387 83.4678 3.01363 83.4678 3.6928Z"
          fill="#12508A"/>
    <path d="M107.428 25.5578L107.776 65.092C107.779 65.492 108.103 65.8143 108.502 65.8143H113.959C114.336 65.8143 114.65 65.5246 114.682 65.1477L115.274 58.1862C115.306 57.8139 115.052 57.478 114.686 57.4083L112.09 56.9131C111.748 56.8478 111.5 56.5471 111.5 56.1974V50.9468C111.5 50.4283 112.025 50.0757 112.502 50.2731L114.39 51.0539C114.851 51.2441 115.361 50.9233 115.391 50.4244L115.798 43.7182C115.818 43.3894 115.616 43.0882 115.305 42.9833L111.995 41.8664C111.699 41.7668 111.5 41.4888 111.5 41.176V34.665C111.5 34.1367 112.042 33.7841 112.523 33.9998L115.718 35.4358C116.173 35.6405 116.693 35.3335 116.737 34.8345L117.289 28.5066C117.318 28.1729 117.117 27.8623 116.801 27.7537L108.389 24.862C107.916 24.6993 107.424 25.0553 107.428 25.5578Z"
          fill="#12508A"/>
    <path d="M100.109 17.7596L97.5493 16.3681C97.0657 16.1052 96.478 16.4567 96.478 17.0087V23.1734C96.478 23.5758 96.1529 23.902 95.7522 23.902H93.8709C93.4701 23.902 93.1451 24.2282 93.1451 24.6306V31.5321C93.1451 31.9345 93.4701 32.2607 93.8709 32.2607H95.4503C95.8485 32.2607 96.1722 32.5827 96.1761 32.9824L96.4713 64.8497C96.4749 65.2494 96.7988 65.5714 97.1971 65.5714H104.516C104.917 65.5714 105.242 65.2453 105.242 64.8429V57.3381C105.242 56.9357 104.917 56.6095 104.516 56.6095H101.215C100.814 56.6095 100.49 56.2834 100.49 55.8809V32.9892C100.49 32.5868 100.814 32.2607 101.215 32.2607H103.343C103.744 32.2607 104.069 31.9345 104.069 31.5321V24.6306C104.069 24.2282 103.744 23.902 103.343 23.902H101.215C100.814 23.902 100.49 23.5758 100.49 23.1734V18.4002C100.49 18.1328 100.344 17.8869 100.109 17.7596Z"
          fill="#12508A"/>
    <path d="M129.286 22.3313L119.609 28.5444C119.4 28.6783 119.274 28.9097 119.274 29.1581V65.45C119.274 65.8524 119.599 66.1786 120 66.1786H129.677C130.078 66.1786 130.403 65.8524 130.403 65.45V58.7942C130.403 58.3918 130.078 58.0657 129.677 58.0657H124.393C123.995 58.0657 123.671 57.7439 123.667 57.3444L123.47 37.3393C123.468 37.1209 123.564 36.9128 123.731 36.7729L130.143 31.3997C130.308 31.2613 130.403 31.0563 130.403 30.8404V22.9451C130.403 22.3694 129.769 22.0212 129.286 22.3313Z"
          fill="#12508A"/>
    <path d="M132.581 18.5334V65.5714C132.581 65.9739 132.906 66.3 133.306 66.3H137.028C137.429 66.3 137.754 65.9739 137.754 65.5714V43.437C137.754 42.8211 138.467 42.483 138.941 42.8745L141.307 44.8314C141.475 44.9699 141.572 45.1761 141.572 45.3939V65.5714C141.572 65.9739 141.897 66.3 142.297 66.3H145.403C145.804 66.3 146.129 65.9739 146.129 65.5714V38.8487C146.129 38.624 146.026 38.4122 145.85 38.2741L138.033 32.1545C137.857 32.0164 137.754 31.8046 137.754 31.5799V12.1566C137.754 11.4136 136.776 11.1472 136.402 11.7883L132.68 18.1651C132.615 18.2769 132.581 18.404 132.581 18.5334Z"
          fill="#12508A"/>
    <path d="M15.3659 52.8214C7.624 50.8786 2.27735 46.0214 1.93547 42.8643C1.54837 60.6414 39.0353 64.762 57.3418 64.6V56.5857C39.1935 56.5857 25.0435 55.25 15.3659 52.8214Z"
          fill="#0D1A61"/>
    <path d="M56.4914 23.6786C57.6735 23.6786 57.6631 33.0215 57.4701 42.9738H57.4592C57.4335 45.0772 56.5023 46.556 54.7805 47.5344C52.9909 48.5518 50.2989 49.0472 46.8034 48.9211C39.8318 48.6695 30.1064 45.9629 19.2798 40.8911C17.3629 39.9932 13.8121 39.014 10.5469 38.3185C9.83946 38.1679 9.13954 38.0292 8.4657 37.9066C8.54346 37.9005 8.62179 37.8954 8.70064 37.8915C18.3413 37.4126 25.8871 34.85 32.0564 32.3C33.037 32.6944 34.3592 33.5952 34.9459 34.7402C35.1902 35.2174 35.7738 35.4052 36.2489 35.1599C36.7243 34.9146 36.9116 34.3288 36.667 33.8516C36.1616 32.8654 35.4939 32.1215 34.7504 31.5685C36.0164 31.0233 37.0161 29.9929 37.621 29.8714C37.919 29.9086 39.0155 30.023 39.3191 30.1043C40.5559 30.4356 41.7278 31.153 42.4459 32.5545C42.6902 33.0317 43.2738 33.2195 43.7489 32.9742C44.2243 32.7289 44.4116 32.1431 44.167 31.6659C43.4064 30.1816 42.2777 29.2463 41.0777 28.6841C42.2049 28.1547 42.4882 27.5602 43.5484 27.0786C43.9911 27.1055 45.2654 27.2551 45.7304 27.3797C46.9672 27.711 48.1391 28.4284 48.8572 29.8299C49.1015 30.3071 49.6851 30.4948 50.1602 30.2496C50.6356 30.0043 50.8229 29.4185 50.5783 28.9415C49.7799 27.3829 48.5758 26.4299 47.3093 25.8784C50.5459 24.557 53.5352 23.6786 56.4914 23.6786Z"
          fill="#12508A"/>
    <path d="M55.8871 48.45C56.4919 47.9213 56.8662 47.6964 57.3351 47.2357C57.3261 47.6262 57.3443 48.7895 57.3353 49.1769L57.3351 49.1878C57.2889 51.2057 57.2439 53.1726 57.2088 55.013C7.05961 55.7187 -0.806889 43.6118 3.87095 39.3429C4.13887 39.3676 4.95966 39.3429 5.71946 39.4403C6.98311 39.6013 8.53431 39.8759 10.1451 40.2191C13.3945 40.911 16.759 41.8543 18.4613 42.6518C29.4087 47.78 39.4011 50.5983 46.7339 50.8628C50.3908 50.9947 53.5268 50.5131 55.8871 48.45Z"
          fill="#12508A"/>
    <path d="M59.7581 23.486V63.9929C59.7581 64.3953 60.083 64.7214 60.4839 64.7214H62.6613C63.0622 64.7214 63.3871 64.3953 63.3871 63.9929V21.0745C63.3871 20.408 62.5693 20.0914 62.1235 20.5852L59.946 22.9967C59.8251 23.1307 59.7581 23.3051 59.7581 23.486Z"
          fill="#0049FF"/>
    <path d="M68.7097 64.7214H66.2903C65.8894 64.7214 65.5645 64.3953 65.5645 63.9929V30.0924C65.5645 29.9212 65.6248 29.7553 65.7344 29.6242L68.1537 26.7313C68.5894 26.2104 69.4355 26.5195 69.4355 27.1998V63.9929C69.4355 64.3953 69.1106 64.7214 68.7097 64.7214Z"
          fill="#0049FF"/>
    <path d="M69.2596 21.8237L66.5983 24.9259C66.1592 25.4378 65.3226 25.126 65.3226 24.4504V16.8327C65.3226 16.6673 65.3787 16.5069 65.4815 16.3777L68.1428 13.037C68.5713 12.499 69.4355 12.8032 69.4355 13.492V21.3483C69.4355 21.5228 69.3731 21.6915 69.2596 21.8237Z"
          fill="#0049FF"/>
    <path d="M71.371 9.55429V64.4785C71.371 64.881 71.6959 65.2071 72.0968 65.2071H74.4602C74.8611 65.2071 75.1861 64.881 75.1861 64.4785V33.7311C75.1861 33.5167 75.2802 33.3129 75.4435 33.1745L79.3689 29.8469C79.5322 29.7084 79.6263 29.5047 79.6263 29.2902V22.9649C79.6263 22.3618 78.9382 22.0199 78.4604 22.3856L76.3519 24C75.8744 24.3658 75.1861 24.0239 75.1861 23.4207V17.8158C75.1861 17.606 75.2761 17.4064 75.4331 17.268L80.3173 12.9676C80.4745 12.8293 80.5645 12.6297 80.5645 12.4199V2.60092C80.5645 1.97114 79.8223 1.63802 79.3548 2.05795L71.6129 9.01133C71.459 9.14954 71.371 9.34701 71.371 9.55429Z"
          fill="#FF9900"/>
    <path d="M82.5 3.6928V64.3572C82.5 64.7596 82.8249 65.0857 83.2258 65.0857H88.546C88.9256 65.0857 89.241 64.7924 89.2698 64.4125L89.8534 56.7113C89.8788 56.3749 89.6707 56.0648 89.3506 55.9621L87.0114 55.2112C86.7106 55.1145 86.5067 54.834 86.5067 54.5171V41.7588C86.5067 41.2372 87.0368 40.8845 87.5153 41.088L89.2592 41.8292C89.7206 42.0252 90.2366 41.7042 90.2666 41.2019L90.6648 34.5605C90.6844 34.2341 90.4851 33.9347 90.1771 33.8281L86.9956 32.7265C86.7029 32.6252 86.5067 32.3486 86.5067 32.0377V19.0699C86.5067 18.4285 87.2727 18.1001 87.7343 18.5435L90.4923 21.1929C90.9387 21.6217 91.6807 21.3302 91.7185 20.7112L92.1595 13.5009C92.1711 13.3138 92.1102 13.1295 91.9899 12.9863L83.7806 3.22288C83.3441 2.70387 82.5 3.01363 82.5 3.6928Z"
          fill="#FF9900"/>
    <path d="M106.461 25.5578L106.808 65.092C106.812 65.492 107.136 65.8143 107.534 65.8143H112.991C113.368 65.8143 113.682 65.5246 113.714 65.1477L114.306 58.1862C114.338 57.8139 114.084 57.478 113.719 57.4083L111.123 56.9131C110.78 56.8478 110.532 56.5471 110.532 56.1974V50.9468C110.532 50.4283 111.057 50.0757 111.534 50.2731L113.423 51.0539C113.883 51.2441 114.393 50.9233 114.424 50.4244L114.83 43.7182C114.85 43.3894 114.648 43.0882 114.337 42.9833L111.027 41.8664C110.731 41.7668 110.532 41.4888 110.532 41.176V34.665C110.532 34.1367 111.074 33.7841 111.555 33.9998L114.75 35.4358C115.205 35.6405 115.726 35.3335 115.769 34.8345L116.321 28.5066C116.35 28.1729 116.149 27.8623 115.834 27.7537L107.422 24.862C106.948 24.6993 106.456 25.0553 106.461 25.5578Z"
          fill="#0049FF"/>
    <path d="M99.1418 17.7596L96.5816 16.3681C96.098 16.1052 95.5103 16.4567 95.5103 17.0087V23.1734C95.5103 23.5758 95.1852 23.902 94.7845 23.902H92.9032C92.5023 23.902 92.1774 24.2282 92.1774 24.6306V31.5321C92.1774 31.9345 92.5023 32.2607 92.9032 32.2607H94.4826C94.8808 32.2607 95.2045 32.5827 95.2084 32.9824L95.5036 64.8497C95.5072 65.2494 95.8311 65.5714 96.2294 65.5714H103.548C103.949 65.5714 104.274 65.2453 104.274 64.8429V57.3381C104.274 56.9357 103.949 56.6095 103.548 56.6095H100.248C99.8468 56.6095 99.5219 56.2834 99.5219 55.8809V32.9892C99.5219 32.5868 99.8468 32.2607 100.248 32.2607H102.376C102.777 32.2607 103.102 31.9345 103.102 31.5321V24.6306C103.102 24.2282 102.777 23.902 102.376 23.902H100.248C99.8468 23.902 99.5219 23.5758 99.5219 23.1734V18.4002C99.5219 18.1328 99.376 17.8869 99.1418 17.7596Z"
          fill="#0049FF"/>
    <path d="M128.319 22.3313L118.641 28.5444C118.433 28.6783 118.306 28.9097 118.306 29.1581V65.45C118.306 65.8524 118.631 66.1786 119.032 66.1786H128.71C129.111 66.1786 129.435 65.8524 129.435 65.45V58.7942C129.435 58.3918 129.111 58.0657 128.71 58.0657H123.425C123.027 58.0657 122.703 57.7439 122.699 57.3444L122.503 37.3393C122.5 37.1209 122.596 36.9128 122.763 36.7729L129.175 31.3997C129.34 31.2613 129.435 31.0563 129.435 30.8404V22.9451C129.435 22.3694 128.802 22.0212 128.319 22.3313Z"
          fill="#FF9900"/>
    <path d="M131.613 18.5334V65.5714C131.613 65.9739 131.938 66.3 132.339 66.3H136.06C136.461 66.3 136.786 65.9739 136.786 65.5714V43.437C136.786 42.8211 137.5 42.483 137.973 42.8745L140.34 44.8314C140.507 44.9699 140.604 45.1761 140.604 45.3939V65.5714C140.604 65.9739 140.929 66.3 141.33 66.3H144.435C144.836 66.3 145.161 65.9739 145.161 65.5714V38.8487C145.161 38.624 145.058 38.4122 144.882 38.2741L137.065 32.1545C136.889 32.0164 136.786 31.8046 136.786 31.5799V12.1566C136.786 11.4136 135.808 11.1472 135.434 11.7883L131.712 18.1651C131.647 18.2769 131.613 18.404 131.613 18.5334Z"
          fill="#FF9900"/>
    <path d="M14.3982 52.8214C6.65628 50.8786 2.28042 46.0214 1.93854 42.8643C1.55144 60.6414 38.0676 64.762 56.3741 64.6V56.5857C38.2258 56.5857 24.0756 55.25 14.3982 52.8214Z"
          fill="#132899"/>
    <path fill-rule="evenodd" clip-rule="evenodd"
          d="M55.5237 23.6786C56.7058 23.6786 56.6954 33.0215 56.5023 42.9738H56.4915C56.4658 45.0772 55.5346 46.556 53.8127 47.5344C52.0231 48.5518 49.3311 49.0472 45.8356 48.9211C38.864 48.6695 29.1387 45.9629 18.312 40.8911C16.3952 39.9932 12.8444 39.014 9.57912 38.3185C8.87172 38.1679 8.1718 38.0292 7.49796 37.9066C7.57572 37.9005 7.65406 37.8954 7.73291 37.8915C17.3736 37.4126 25.0568 35.1205 31.521 32.5122C32.5016 32.9066 33.3914 33.5952 33.9781 34.7402C34.2225 35.2174 34.806 35.4052 35.2812 35.1599C35.7566 34.9146 35.9439 34.3288 35.6993 33.8516C35.1939 32.8654 34.5261 32.1215 33.7827 31.5685C35.0487 31.0233 36.2676 30.4725 37.4453 29.9287C37.7431 29.9659 38.0477 30.023 38.3514 30.1043C39.5881 30.4356 40.7601 31.153 41.4781 32.5545C41.7225 33.0317 42.306 33.2195 42.7812 32.9742C43.2566 32.7289 43.4439 32.1431 43.1993 31.6659C42.4386 30.1816 41.31 29.2463 40.11 28.6841C41.2372 28.1547 42.3276 27.6425 43.3877 27.1609C43.8305 27.1876 44.2977 27.2551 44.7627 27.3797C45.9994 27.711 47.1714 28.4284 47.8894 29.8299C48.1338 30.3071 48.7173 30.4948 49.1925 30.2496C49.6679 30.0043 49.8552 29.4185 49.6106 28.9415C48.8122 27.3829 47.6081 26.4299 46.3415 25.8784C49.5781 24.557 52.5675 23.6786 55.5237 23.6786ZM54.7662 49.2252C55.3807 48.876 55.9253 48.4702 56.3944 48.0097C56.3855 48.4002 56.3765 48.7895 56.3676 49.1769L56.3673 49.1878V49.188C56.3211 51.2057 56.2761 53.1726 56.241 55.013C6.09188 55.7187 -0.796073 43.612 3.88178 39.3431C4.1497 39.3681 4.4406 39.4004 4.75173 39.4402C6.01538 39.6013 7.56658 39.8759 9.17741 40.2191C12.4267 40.911 15.7912 41.8542 17.4935 42.6518C28.441 47.78 38.4334 50.5983 45.7662 50.8628C49.4231 50.9947 52.53 50.4961 54.7662 49.2252Z"
          fill="#0049FF"/>
</svg>
